<svg width="1440" height="1024" viewBox="0 0 1440 1024" fill="none" xmlns="http://www.w3.org/2000/svg">
<g opacity="0.04">
<g opacity="0.2">
<rect x="-56.0576" y="0.803223" width="326" height="24" transform="rotate(-22.2028 -56.0576 0.803223)" fill="#2C3333"/>
<rect x="-42.4537" y="34.1338" width="326" height="24" transform="rotate(-22.2028 -42.4537 34.1338)" fill="#2C3333"/>
<rect x="-28.8499" y="67.4644" width="326" height="24" transform="rotate(-22.2028 -28.8499 67.4644)" fill="#2C3333"/>
</g>
<g opacity="0.6">
<rect x="-213.662" y="220.662" width="326" height="24" transform="rotate(-22.2028 -213.662 220.662)" fill="#2C3333"/>
<rect x="-200.058" y="253.992" width="326" height="24" transform="rotate(-22.2028 -200.058 253.992)" fill="#2C3333"/>
<rect x="-186.454" y="287.323" width="326" height="24" transform="rotate(-22.2028 -186.454 287.323)" fill="#2C3333"/>
</g>
<g opacity="0.2">
<rect x="99.2758" y="92.936" width="96" height="96" transform="rotate(-22.2028 99.2758 92.936)" fill="#2C3333"/>
<rect x="199.268" y="52.1245" width="326" height="24" transform="rotate(-22.2028 199.268 52.1245)" fill="#2C3333"/>
<rect x="212.872" y="85.4551" width="326" height="24" transform="rotate(-22.2028 212.872 85.4551)" fill="#2C3333"/>
<rect x="226.476" y="118.786" width="326" height="24" transform="rotate(-22.2028 226.476 118.786)" fill="#2C3333"/>
</g>
<g opacity="0.2">
<rect x="512.206" y="-75.6006" width="96" height="96" transform="rotate(-22.2028 512.206 -75.6006)" fill="#2C3333"/>
</g>
<g opacity="0.2">
<rect x="-47.2186" y="308.26" width="96" height="96" transform="rotate(-22.2028 -47.2186 308.26)" fill="#2C3333"/>
<rect x="52.7734" y="267.449" width="326" height="24" transform="rotate(-22.2028 52.7734 267.449)" fill="#2C3333"/>
<rect x="66.3773" y="300.779" width="326" height="24" transform="rotate(-22.2028 66.3773 300.779)" fill="#2C3333"/>
<rect x="79.9812" y="334.11" width="326" height="24" transform="rotate(-22.2028 79.9812 334.11)" fill="#2C3333"/>
</g>
<g opacity="0.4">
<rect x="365.711" y="139.723" width="96" height="96" transform="rotate(-22.2028 365.711 139.723)" fill="#2C3333"/>
<rect x="465.704" y="98.9116" width="326" height="24" transform="rotate(-22.2028 465.704 98.9116)" fill="#2C3333"/>
<rect x="479.307" y="132.242" width="326" height="24" transform="rotate(-22.2028 479.307 132.242)" fill="#2C3333"/>
<rect x="492.911" y="165.573" width="326" height="24" transform="rotate(-22.2028 492.911 165.573)" fill="#2C3333"/>
</g>
<g opacity="0.2">
<rect x="778.642" y="-28.814" width="96" height="96" transform="rotate(-22.2028 778.642 -28.814)" fill="#2C3333"/>
<rect x="905.841" y="-2.96436" width="326" height="24" transform="rotate(-22.2028 905.841 -2.96436)" fill="#2C3333"/>
</g>
<g opacity="0.2">
<rect x="-104.831" y="487.307" width="326" height="24" transform="rotate(-22.2028 -104.831 487.307)" fill="#2C3333"/>
<rect x="-91.2274" y="520.638" width="326" height="24" transform="rotate(-22.2028 -91.2274 520.638)" fill="#2C3333"/>
<rect x="-77.6235" y="553.968" width="326" height="24" transform="rotate(-22.2028 -77.6235 553.968)" fill="#2C3333"/>
</g>
<g opacity="0.2">
<rect x="208.107" y="359.582" width="96" height="96" transform="rotate(-22.2028 208.107 359.582)" fill="#2C3333"/>
<rect x="308.099" y="318.77" width="326" height="24" transform="rotate(-22.2028 308.099 318.77)" fill="#2C3333"/>
<rect x="321.703" y="352.101" width="326" height="24" transform="rotate(-22.2028 321.703 352.101)" fill="#2C3333"/>
<rect x="335.307" y="385.431" width="326" height="24" transform="rotate(-22.2028 335.307 385.431)" fill="#2C3333"/>
</g>
<g opacity="0.6">
<rect x="621.037" y="191.045" width="96" height="96" transform="rotate(-22.2028 621.037 191.045)" fill="#2C3333"/>
<rect x="721.029" y="150.233" width="326" height="24" transform="rotate(-22.2028 721.029 150.233)" fill="#2C3333"/>
<rect x="734.633" y="183.564" width="326" height="24" transform="rotate(-22.2028 734.633 183.564)" fill="#2C3333"/>
<rect x="748.237" y="216.895" width="326" height="24" transform="rotate(-22.2028 748.237 216.895)" fill="#2C3333"/>
</g>
<g opacity="0.2">
<rect x="1033.97" y="22.5078" width="96" height="96" transform="rotate(-22.2028 1033.97 22.5078)" fill="#2C3333"/>
<rect x="1133.96" y="-18.3037" width="326" height="24" transform="rotate(-22.2028 1133.96 -18.3037)" fill="#2C3333"/>
<rect x="1147.56" y="15.0269" width="326" height="24" transform="rotate(-22.2028 1147.56 15.0269)" fill="#2C3333"/>
<rect x="1161.17" y="48.3574" width="326" height="24" transform="rotate(-22.2028 1161.17 48.3574)" fill="#2C3333"/>
</g>
<g opacity="0.2">
<rect x="-251.326" y="702.631" width="326" height="24" transform="rotate(-22.2028 -251.326 702.631)" fill="#2C3333"/>
<rect x="-237.722" y="735.962" width="326" height="24" transform="rotate(-22.2028 -237.722 735.962)" fill="#2C3333"/>
<rect x="-224.118" y="769.292" width="326" height="24" transform="rotate(-22.2028 -224.118 769.292)" fill="#2C3333"/>
</g>
<g opacity="0.4">
<rect x="61.6124" y="574.906" width="96" height="96" transform="rotate(-22.2028 61.6124 574.906)" fill="#2C3333"/>
<rect x="161.604" y="534.094" width="326" height="24" transform="rotate(-22.2028 161.604 534.094)" fill="#2C3333"/>
<rect x="175.208" y="567.425" width="326" height="24" transform="rotate(-22.2028 175.208 567.425)" fill="#2C3333"/>
<rect x="188.812" y="600.755" width="326" height="24" transform="rotate(-22.2028 188.812 600.755)" fill="#2C3333"/>
</g>
<g opacity="0.2">
<rect x="474.543" y="406.369" width="96" height="96" transform="rotate(-22.2028 474.543 406.369)" fill="#2C3333"/>
<rect x="574.535" y="365.557" width="326" height="24" transform="rotate(-22.2028 574.535 365.557)" fill="#2C3333"/>
<rect x="588.138" y="398.888" width="326" height="24" transform="rotate(-22.2028 588.138 398.888)" fill="#2C3333"/>
<rect x="601.742" y="432.218" width="326" height="24" transform="rotate(-22.2028 601.742 432.218)" fill="#2C3333"/>
</g>
<g opacity="0.2">
<rect x="887.473" y="237.832" width="96" height="96" transform="rotate(-22.2028 887.473 237.832)" fill="#2C3333"/>
<rect x="987.465" y="197.02" width="326" height="24" transform="rotate(-22.2028 987.465 197.02)" fill="#2C3333"/>
<rect x="1001.07" y="230.351" width="326" height="24" transform="rotate(-22.2028 1001.07 230.351)" fill="#2C3333"/>
<rect x="1014.67" y="263.681" width="326" height="24" transform="rotate(-22.2028 1014.67 263.681)" fill="#2C3333"/>
</g>
<g opacity="0.2">
<rect x="1300.4" y="69.2949" width="96" height="96" transform="rotate(-22.2028 1300.4 69.2949)" fill="#2C3333"/>
<rect x="1400.39" y="28.4834" width="326" height="24" transform="rotate(-22.2028 1400.39 28.4834)" fill="#2C3333"/>
<rect x="1414" y="61.814" width="326" height="24" transform="rotate(-22.2028 1414 61.814)" fill="#2C3333"/>
<rect x="1427.6" y="95.1445" width="326" height="24" transform="rotate(-22.2028 1427.6 95.1445)" fill="#2C3333"/>
</g>
<g opacity="0.2">
<rect x="-95.9922" y="794.764" width="96" height="96" transform="rotate(-22.2028 -95.9922 794.764)" fill="#2C3333"/>
<rect x="3.99982" y="753.953" width="326" height="24" transform="rotate(-22.2028 3.99982 753.953)" fill="#2C3333"/>
<rect x="17.6037" y="787.283" width="326" height="24" transform="rotate(-22.2028 17.6037 787.283)" fill="#2C3333"/>
<rect x="31.2076" y="820.614" width="326" height="24" transform="rotate(-22.2028 31.2076 820.614)" fill="#2C3333"/>
</g>
<g opacity="0.1">
<rect x="316.938" y="626.227" width="96" height="96" transform="rotate(-22.2028 316.938 626.227)" fill="#2C3333"/>
<rect x="416.93" y="585.416" width="326" height="24" transform="rotate(-22.2028 416.93 585.416)" fill="#2C3333"/>
<rect x="430.534" y="618.746" width="326" height="24" transform="rotate(-22.2028 430.534 618.746)" fill="#2C3333"/>
<rect x="444.138" y="652.077" width="326" height="24" transform="rotate(-22.2028 444.138 652.077)" fill="#2C3333"/>
</g>
<g opacity="0.5">
<rect x="729.868" y="457.69" width="96" height="96" transform="rotate(-22.2028 729.868 457.69)" fill="#2C3333"/>
<rect x="829.86" y="416.879" width="326" height="24" transform="rotate(-22.2028 829.86 416.879)" fill="#2C3333"/>
<rect x="843.464" y="450.209" width="326" height="24" transform="rotate(-22.2028 843.464 450.209)" fill="#2C3333"/>
<rect x="857.068" y="483.54" width="326" height="24" transform="rotate(-22.2028 857.068 483.54)" fill="#2C3333"/>
</g>
<g opacity="0.4">
<rect x="1142.8" y="289.153" width="96" height="96" transform="rotate(-22.2028 1142.8 289.153)" fill="#2C3333"/>
<rect x="1242.79" y="248.342" width="326" height="24" transform="rotate(-22.2028 1242.79 248.342)" fill="#2C3333"/>
<rect x="1256.39" y="281.672" width="326" height="24" transform="rotate(-22.2028 1256.39 281.672)" fill="#2C3333"/>
<rect x="1270" y="315.003" width="326" height="24" transform="rotate(-22.2028 1270 315.003)" fill="#2C3333"/>
</g>
<g opacity="0.2">
<rect x="-142.495" y="969.277" width="326" height="24" transform="rotate(-22.2028 -142.495 969.277)" fill="#2C3333"/>
<rect x="-128.891" y="1002.61" width="326" height="24" transform="rotate(-22.2028 -128.891 1002.61)" fill="#2C3333"/>
<rect x="-115.287" y="1035.94" width="326" height="24" transform="rotate(-22.2028 -115.287 1035.94)" fill="#2C3333"/>
</g>
<g opacity="0.8">
<rect x="170.443" y="841.551" width="96" height="96" transform="rotate(-22.2028 170.443 841.551)" fill="#2C3333"/>
<rect x="270.436" y="800.74" width="326" height="24" transform="rotate(-22.2028 270.436 800.74)" fill="#2C3333"/>
<rect x="284.039" y="834.07" width="326" height="24" transform="rotate(-22.2028 284.039 834.07)" fill="#2C3333"/>
<rect x="297.643" y="867.401" width="326" height="24" transform="rotate(-22.2028 297.643 867.401)" fill="#2C3333"/>
</g>
<g opacity="0.2">
<rect x="583.374" y="673.014" width="96" height="96" transform="rotate(-22.2028 583.374 673.014)" fill="#2C3333"/>
<rect x="683.366" y="632.203" width="326" height="24" transform="rotate(-22.2028 683.366 632.203)" fill="#2C3333"/>
<rect x="696.97" y="665.533" width="326" height="24" transform="rotate(-22.2028 696.97 665.533)" fill="#2C3333"/>
<rect x="710.573" y="698.864" width="326" height="24" transform="rotate(-22.2028 710.573 698.864)" fill="#2C3333"/>
</g>
<g opacity="0.2">
<rect x="996.304" y="504.477" width="96" height="96" transform="rotate(-22.2028 996.304 504.477)" fill="#2C3333"/>
<rect x="1096.3" y="463.666" width="326" height="24" transform="rotate(-22.2028 1096.3 463.666)" fill="#2C3333"/>
<rect x="1109.9" y="496.996" width="326" height="24" transform="rotate(-22.2028 1109.9 496.996)" fill="#2C3333"/>
<rect x="1123.5" y="530.327" width="326" height="24" transform="rotate(-22.2028 1123.5 530.327)" fill="#2C3333"/>
</g>
<g opacity="0.2">
<rect x="1409.23" y="335.94" width="96" height="96" transform="rotate(-22.2028 1409.23 335.94)" fill="#2C3333"/>
</g>
<g opacity="0.2">
<rect x="112.831" y="1020.6" width="326" height="24" transform="rotate(-22.2028 112.831 1020.6)" fill="#2C3333"/>
<rect x="126.435" y="1053.93" width="326" height="24" transform="rotate(-22.2028 126.435 1053.93)" fill="#2C3333"/>
<rect x="140.039" y="1087.26" width="326" height="24" transform="rotate(-22.2028 140.039 1087.26)" fill="#2C3333"/>
</g>
<g opacity="0.2">
<rect x="425.769" y="892.873" width="96" height="96" transform="rotate(-22.2028 425.769 892.873)" fill="#2C3333"/>
<rect x="525.761" y="852.061" width="326" height="24" transform="rotate(-22.2028 525.761 852.061)" fill="#2C3333"/>
<rect x="539.365" y="885.392" width="326" height="24" transform="rotate(-22.2028 539.365 885.392)" fill="#2C3333"/>
<rect x="552.969" y="918.722" width="326" height="24" transform="rotate(-22.2028 552.969 918.722)" fill="#2C3333"/>
</g>
<g opacity="0.2">
<rect x="838.699" y="724.336" width="96" height="96" transform="rotate(-22.2028 838.699 724.336)" fill="#2C3333"/>
<rect x="938.691" y="683.524" width="326" height="24" transform="rotate(-22.2028 938.691 683.524)" fill="#2C3333"/>
<rect x="952.295" y="716.855" width="326" height="24" transform="rotate(-22.2028 952.295 716.855)" fill="#2C3333"/>
<rect x="965.899" y="750.186" width="326" height="24" transform="rotate(-22.2028 965.899 750.186)" fill="#2C3333"/>
</g>
<g opacity="0.4">
<rect x="1251.63" y="555.799" width="96" height="96" transform="rotate(-22.2028 1251.63 555.799)" fill="#2C3333"/>
<rect x="1351.62" y="514.987" width="326" height="24" transform="rotate(-22.2028 1351.62 514.987)" fill="#2C3333"/>
<rect x="1365.23" y="548.318" width="326" height="24" transform="rotate(-22.2028 1365.23 548.318)" fill="#2C3333"/>
<rect x="1378.83" y="581.648" width="326" height="24" transform="rotate(-22.2028 1378.83 581.648)" fill="#2C3333"/>
</g>
<g opacity="0.2">
<rect x="379.267" y="1067.39" width="326" height="24" transform="rotate(-22.2028 379.267 1067.39)" fill="#2C3333"/>
<rect x="392.87" y="1100.72" width="326" height="24" transform="rotate(-22.2028 392.87 1100.72)" fill="#2C3333"/>
<rect x="406.474" y="1134.05" width="326" height="24" transform="rotate(-22.2028 406.474 1134.05)" fill="#2C3333"/>
</g>
<g opacity="0.4">
<rect x="692.205" y="939.66" width="96" height="96" transform="rotate(-22.2028 692.205 939.66)" fill="#2C3333"/>
<rect x="792.197" y="898.848" width="326" height="24" transform="rotate(-22.2028 792.197 898.848)" fill="#2C3333"/>
<rect x="805.801" y="932.179" width="326" height="24" transform="rotate(-22.2028 805.801 932.179)" fill="#2C3333"/>
<rect x="819.404" y="965.509" width="326" height="24" transform="rotate(-22.2028 819.404 965.509)" fill="#2C3333"/>
</g>
<g opacity="0.2">
<rect x="1105.13" y="771.123" width="96" height="96" transform="rotate(-22.2028 1105.13 771.123)" fill="#2C3333"/>
<rect x="1205.13" y="730.311" width="326" height="24" transform="rotate(-22.2028 1205.13 730.311)" fill="#2C3333"/>
<rect x="1218.73" y="763.642" width="326" height="24" transform="rotate(-22.2028 1218.73 763.642)" fill="#2C3333"/>
<rect x="1232.33" y="796.972" width="326" height="24" transform="rotate(-22.2028 1232.33 796.972)" fill="#2C3333"/>
</g>
<g opacity="0.2">
<rect x="634.592" y="1118.71" width="326" height="24" transform="rotate(-22.2028 634.592 1118.71)" fill="#2C3333"/>
</g>
<g opacity="0.4">
<rect x="947.53" y="990.981" width="96" height="96" transform="rotate(-22.2028 947.53 990.981)" fill="#2C3333"/>
<rect x="1047.52" y="950.17" width="326" height="24" transform="rotate(-22.2028 1047.52 950.17)" fill="#2C3333"/>
<rect x="1061.13" y="983.5" width="326" height="24" transform="rotate(-22.2028 1061.13 983.5)" fill="#2C3333"/>
<rect x="1074.73" y="1016.83" width="326" height="24" transform="rotate(-22.2028 1074.73 1016.83)" fill="#2C3333"/>
</g>
<g opacity="0.2">
<rect x="1360.46" y="822.444" width="96" height="96" transform="rotate(-22.2028 1360.46 822.444)" fill="#2C3333"/>
</g>
<g opacity="0.2">
<rect x="1213.97" y="1037.77" width="96" height="96" transform="rotate(-22.2028 1213.97 1037.77)" fill="#2C3333"/>
<rect x="1313.96" y="996.957" width="326" height="24" transform="rotate(-22.2028 1313.96 996.957)" fill="#2C3333"/>
<rect x="1327.56" y="1030.29" width="326" height="24" transform="rotate(-22.2028 1327.56 1030.29)" fill="#2C3333"/>
<rect x="1341.17" y="1063.62" width="326" height="24" transform="rotate(-22.2028 1341.17 1063.62)" fill="#2C3333"/>
</g>
</g>
</svg>
